<?xml version="1.0" encoding="UTF-8"?><svg id="Layer_1" xmlns="http://www.w3.org/2000/svg" viewBox="0 0 1200 371.65"><defs><style>.cls-1{fill:#fff;stroke-width:0px;}</style></defs><path class="cls-1" d="M498.49,222.99h-46.55l-8.74,25.98h-27.6l45.09-126.36h29.83l44.75,126.36h-28.63l-8.14-25.98ZM491.12,201.22l-15.78-49.72-16.29,49.72h32.06Z"/><path class="cls-1" d="M593.3,173.61c-8.29,0-13.97,3.51-17.06,10.54-1.6,3.72-2.4,8.46-2.4,14.23v50.58h-24.35v-93.27h23.57v13.63c3.14-4.8,6.12-8.26,8.92-10.37,5.03-3.77,11.4-5.66,19.12-5.66,9.66,0,17.56,2.53,23.7,7.59,6.15,5.06,9.22,13.44,9.22,25.16v62.93h-25.03v-56.84c0-4.92-.66-8.68-1.97-11.32-2.4-4.8-6.97-7.2-13.71-7.2Z"/><path class="cls-1" d="M741.61,122.78v126.19h-23.75v-12.95c-3.49,5.55-7.46,9.58-11.92,12.09-4.46,2.51-10,3.77-16.63,3.77-10.91,0-20.1-4.41-27.56-13.24-7.46-8.83-11.18-20.16-11.18-33.99,0-15.95,3.67-28.49,11.01-37.64,7.35-9.14,17.16-13.71,29.45-13.71,5.66,0,10.69,1.24,15.09,3.73s7.97,5.93,10.72,10.33v-44.58h24.78ZM675.77,202.85c0,8.63,1.71,15.51,5.14,20.66,3.37,5.2,8.52,7.8,15.43,7.8s12.17-2.57,15.78-7.72c3.6-5.14,5.4-11.8,5.4-19.97,0-11.43-2.88-19.6-8.66-24.52-3.55-2.97-7.66-4.46-12.35-4.46-7.14,0-12.39,2.7-15.73,8.1-3.35,5.4-5.01,12.1-5.01,20.11Z"/><path class="cls-1" d="M843.28,245.88c-6.97,4.29-15.54,6.43-25.72,6.43-16.74,0-30.46-5.8-41.15-17.4-11.15-11.66-16.72-27.6-16.72-47.84s5.63-36.86,16.89-49.21c11.26-12.35,26.15-18.52,44.66-18.52,16.06,0,28.96,4.07,38.71,12.21,9.74,8.15,15.33,18.3,16.76,30.48h-25.98c-2-8.63-6.89-14.66-14.66-18.09-4.34-1.88-9.17-2.83-14.49-2.83-10.18,0-18.54,3.84-25.08,11.53-6.54,7.69-9.82,19.25-9.82,34.68s3.54,26.55,10.63,33.01c7.09,6.46,15.15,9.69,24.18,9.69s16.12-2.56,21.77-7.68c5.66-5.11,9.15-11.81,10.46-20.1h-29.23v-21.09h52.64v67.81h-17.49l-2.66-15.78c-5.09,6-9.66,10.23-13.72,12.69Z"/><path class="cls-1" d="M947.36,178.07c-9.83,0-16.43,3.2-19.8,9.6-1.88,3.6-2.83,9.15-2.83,16.63v44.66h-24.6v-93.44h23.32v16.29c3.77-6.23,7.06-10.49,9.86-12.77,4.57-3.83,10.52-5.74,17.83-5.74.46,0,.84.01,1.16.04s1.01.07,2.1.13v25.03c-1.55-.17-2.91-.29-4.11-.34-1.2-.05-2.17-.08-2.92-.08Z"/><path class="cls-1" d="M972.22,165.64c6.46-8.23,17.55-12.35,33.26-12.35,10.23,0,19.32,2.03,27.26,6.09,7.95,4.06,11.92,11.72,11.92,22.97v42.86c0,2.97.06,6.57.17,10.8.17,3.2.65,5.37,1.46,6.51.8,1.15,2,2.09,3.6,2.83v3.6h-26.58c-.74-1.88-1.26-3.66-1.55-5.31s-.51-3.54-.68-5.66c-3.37,3.66-7.26,6.77-11.66,9.34-5.26,3.03-11.2,4.54-17.83,4.54-8.46,0-15.45-2.41-20.96-7.24-5.52-4.83-8.27-11.67-8.27-20.53,0-11.49,4.43-19.81,13.29-24.95,4.86-2.8,12-4.8,21.43-6l8.32-1.03c4.51-.57,7.75-1.28,9.69-2.14,3.48-1.49,5.23-3.8,5.23-6.95,0-3.83-1.33-6.47-3.99-7.93-2.66-1.46-6.56-2.18-11.7-2.18-5.77,0-9.86,1.43-12.26,4.29-1.72,2.12-2.86,4.97-3.43,8.57h-23.57c.51-8.17,2.8-14.89,6.85-20.15ZM990.4,231.31c2.28,1.88,5.09,2.83,8.4,2.83,5.26,0,10.1-1.55,14.53-4.63,4.43-3.09,6.73-8.71,6.9-16.89v-9.09c-1.55.97-3.1,1.76-4.67,2.36-1.57.6-3.73,1.16-6.47,1.67l-5.49,1.03c-5.14.92-8.83,2.03-11.06,3.35-3.77,2.23-5.65,5.68-5.65,10.37,0,4.17,1.17,7.17,3.51,9Z"/><path class="cls-1" d="M1118.81,181.24c-2.06-4.52-6.08-6.78-12.09-6.78-6.97,0-11.66,2.26-14.06,6.78-1.32,2.57-1.97,6.4-1.97,11.48v56.24h-24.78v-93.27h23.75v13.63c3.03-4.86,5.89-8.32,8.57-10.37,4.74-3.66,10.89-5.49,18.43-5.49,7.14,0,12.92,1.57,17.32,4.71,3.54,2.91,6.23,6.66,8.06,11.23,3.2-5.49,7.17-9.52,11.92-12.09,5.02-2.57,10.63-3.86,16.8-3.86,4.12,0,8.17.8,12.17,2.4,4,1.6,7.63,4.4,10.89,8.4,2.63,3.26,4.4,7.26,5.31,12,.57,3.14.86,7.75.86,13.8l-.17,58.9h-25.03v-59.5c0-3.54-.57-6.46-1.71-8.74-2.17-4.34-6.18-6.51-12-6.51-6.75,0-11.41,2.8-13.97,8.4-1.32,2.97-1.97,6.54-1.97,10.72v55.64h-24.6v-55.64c0-5.54-.57-9.57-1.72-12.09Z"/><polygon class="cls-1" points="196.78 .59 196.78 25.46 314.17 87.49 196.78 151.22 196.78 176.24 325.75 106.23 325.75 263.22 173.87 346.57 21.99 263.22 21.99 105.47 152.09 176.09 152.09 151.07 34.29 87.12 152.09 24.87 152.09 0 0 80.36 0 276.23 173.87 371.65 347.74 276.23 347.74 80.36 196.78 .59"/></svg>